<svg width="28" height="24" viewBox="0 0 28 24" fill="none" xmlns="http://www.w3.org/2000/svg">
<path d="M3.32105 13.4788L13.1559 22.4836C13.4947 22.7938 13.6641 22.9489 13.8638 22.9871C13.9537 23.0043 14.0463 23.0043 14.1362 22.9871C14.3359 22.9489 14.5053 22.7938 14.8441 22.4836L24.679 13.4788C27.4461 10.9452 27.7821 6.77587 25.4548 3.85221L25.0172 3.30248C22.2331 -0.195049 16.6447 0.391513 14.6884 4.38659C14.4121 4.95092 13.5879 4.95092 13.3116 4.38659C11.3553 0.391513 5.76688 -0.195044 2.98278 3.30248L2.54518 3.85222C0.217898 6.77587 0.553927 10.9452 3.32105 13.4788Z" stroke="#e01010" stroke-width="2"/>
</svg>
